<svg xmlns="http://www.w3.org/2000/svg" viewBox="0 0 17.23 15.14"><defs><style>.a{fill:#333}</style></defs><path class="a" d="M14.17 4.9l-.22-3.22a.91.91 0 0 0-.91-.83H4.17a.91.91 0 0 0-.91.83L3.05 4.9h11.11zm1.87 3.31a1.2 1.2 0 1 0-1.19 1.19 1.2 1.2 0 0 0 1.19-1.19M12.54 10V7a.55.55 0 0 0-.54-.54H5.21a.54.54 0 0 0-.54.54v3h7.88zM2.38 9.4a1.2 1.2 0 1 0-1.2-1.19 1.19 1.19 0 0 0 1.2 1.19M13.04 0a1.76 1.76 0 0 1 1.75 1.61l.22 3.32 2.21 1.34v5.61h-1v1.83a1.43 1.43 0 0 1-2.86 0v-1.83H3.81v1.83a1.43 1.43 0 0 1-2.86 0v-1.83h-1V6.26l2.21-1.34.22-3.32A1.75 1.75 0 0 1 4.13-.01H13z"/></svg>